<?xml version="1.0" encoding="utf-8"?>
<!-- Generator: Adobe Illustrator 23.0.3, SVG Export Plug-In . SVG Version: 6.00 Build 0)  -->
<svg version="1.1" id="katman_1" xmlns="http://www.w3.org/2000/svg" xmlns:xlink="http://www.w3.org/1999/xlink" x="0px" y="0px"
	 viewBox="0 0 800 600" style="enable-background:new 0 0 800 600;" xml:space="preserve">
<style type="text/css">
	.st0{fill:#25339D;}
	.st1{fill:#FFFFFF;}
</style>
<path class="st0" d="M399.8,554.4c140.7,0,254.8-114.1,254.8-254.8S540.5,44.8,399.8,44.8c-140.7,0-254.8,114-254.8,254.8
	C145,440.3,259.1,554.4,399.8,554.4z"/>
<path class="st1" d="M314.8,413.2l35.5-61.2l35.5-61l35.3-61.2l5.8-9.7l2.6,9.7l10.8,40.3L428.2,291l-35.5,61l-35.3,61.2h42.4
	l35.5-61.2l18.4-31.7l8.7,31.7l16.4,61.2h38.1L500.5,352L484,291l-4.3-15.7l26.4-45.5h-38.5l-1.3-4.5l-13.4-50l-1.7-6.5h-37
	l-0.9,1.3l-34.6,59.7L343.2,291l-35.3,61l-35.5,61.2H314.8z"/>
</svg>
